<svg id="Layer_1" data-name="Layer 1" xmlns="http://www.w3.org/2000/svg" viewBox="0 0 207.68 218"><defs><style>.cls-1{fill:#e2e2e2;}</style></defs><title>default-panel-set</title><rect class="cls-1" x="32.07" y="195.6" width="43.35" height="4.34"/><rect class="cls-1" x="32.07" y="204.63" width="43.35" height="3.47"/><rect class="cls-1" x="32.07" y="213.66" width="43.35" height="4.34"/><rect class="cls-1" x="86.26" y="195.6" width="43.35" height="4.34"/><rect class="cls-1" x="86.26" y="204.63" width="43.35" height="4.34"/><rect class="cls-1" x="86.26" y="213.66" width="43.35" height="4.34"/><rect class="cls-1" x="140.45" y="195.6" width="43.35" height="4.34"/><rect class="cls-1" x="140.45" y="204.63" width="43.35" height="4.34"/><rect class="cls-1" x="140.45" y="213.66" width="43.35" height="4.34"/><path class="cls-1" d="M85.42,177.42a21.68,21.68,0,1,1-21.68-21.68,21.68,21.68,0,0,1,21.68,21.68" transform="translate(-10 -10)"/><path class="cls-1" d="M139.61,177.42a21.68,21.68,0,1,1-21.68-21.68,21.68,21.68,0,0,1,21.68,21.68" transform="translate(-10 -10)"/><path class="cls-1" d="M193.8,177.42a21.68,21.68,0,1,1-21.68-21.68,21.68,21.68,0,0,1,21.68,21.68" transform="translate(-10 -10)"/><rect class="cls-1" x="64.35" y="109.1" width="87.66" height="4.34"/><rect class="cls-1" x="54.55" y="100.43" width="107.25" height="4.34"/><rect class="cls-1" x="93.49" y="122.1" width="29.38" height="8.67"/><rect class="cls-1" width="207.68" height="88.15"/></svg>