<?xml version="1.0" encoding="utf-8"?>
<!-- Generator: Adobe Illustrator 20.0.0, SVG Export Plug-In . SVG Version: 6.00 Build 0)  -->
<svg version="1.1" id="Layer_1" xmlns="http://www.w3.org/2000/svg" xmlns:xlink="http://www.w3.org/1999/xlink" x="0px" y="0px"
	 viewBox="0 0 75 75" style="enable-background:new 0 0 75 75;" xml:space="preserve">
<g>
	<path d="M37.5,7.9c16.3,0,29.6,13.3,29.6,29.6S53.8,67.1,37.5,67.1S7.9,53.8,7.9,37.5S21.2,7.9,37.5,7.9 M37.5,2.9
		C18.4,2.9,2.9,18.4,2.9,37.5s15.5,34.6,34.6,34.6s34.6-15.5,34.6-34.6S56.6,2.9,37.5,2.9L37.5,2.9z"/>
</g>
<path d="M41.4,46.5c0,0.6-0.4,1-1,1h-5.6c-0.6,0-1-0.4-1-1l-1.7-28.3c0-0.6,0.4-1.2,1-1.2h9.2c0.6,0,1,0.6,1,1.2L41.4,46.5z"/>
<path d="M37.6,59c-2.3,0-4.2-1.9-4.2-4.2c0-2.3,1.9-4.2,4.2-4.2c2.3,0,4.2,1.9,4.2,4.2C41.8,57,39.9,59,37.6,59z"/>
</svg>
