<?xml version="1.0" encoding="utf-8"?>
<!-- Generator: Adobe Illustrator 20.0.0, SVG Export Plug-In . SVG Version: 6.00 Build 0)  -->
<svg version="1.1" id="Layer_1" xmlns="http://www.w3.org/2000/svg" xmlns:xlink="http://www.w3.org/1999/xlink" x="0px" y="0px"
	 viewBox="0 0 75 75" style="enable-background:new 0 0 75 75;" xml:space="preserve">
<style type="text/css">
	.st0{fill-rule:evenodd;clip-rule:evenodd;}
</style>
<g>
	<path d="M37.5,7.9c16.3,0,29.6,13.3,29.6,29.6S53.8,67.1,37.5,67.1S7.9,53.8,7.9,37.5S21.2,7.9,37.5,7.9 M37.5,2.9
		C18.4,2.9,2.9,18.4,2.9,37.5s15.5,34.6,34.6,34.6s34.6-15.5,34.6-34.6S56.6,2.9,37.5,2.9L37.5,2.9z"/>
</g>
<polygon class="st0" points="29,32.9 33.8,32.9 33.8,52.3 29,52.3 29,55.5 46.7,55.5 46.7,52.3 41.9,52.3 41.9,29.7 29,29.7 "/>
<circle class="st0" cx="37.8" cy="22.5" r="4"/>
</svg>
