<?xml version="1.0" encoding="utf-8"?>
<!-- Generator: Adobe Illustrator 20.0.0, SVG Export Plug-In . SVG Version: 6.00 Build 0)  -->
<svg version="1.1" id="Layer_1" xmlns="http://www.w3.org/2000/svg" xmlns:xlink="http://www.w3.org/1999/xlink" x="0px" y="0px"
	 viewBox="0 0 13 13" style="enable-background:new 0 0 13 13;" xml:space="preserve">
<style type="text/css">
	.st0{enable-background:new    ;}
</style>
<g id="_" class="st0">
	<path class="st1" d="M9.2,11.5c-0.9,0.5-1.9,0.8-3,0.8c-0.8,0-1.6-0.2-2.3-0.5S2.5,11.1,2,10.5C1.5,10,1,9.4,0.7,8.6
		C0.4,7.9,0.2,7.1,0.2,6.3c0-0.8,0.2-1.6,0.5-2.3C1,3.3,1.5,2.6,2,2.1c0.5-0.5,1.2-1,1.9-1.3s1.5-0.5,2.3-0.5c1.1,0,2.1,0.3,3,0.8
		c0.9,0.5,1.6,1.3,2.2,2.2c0.5,0.9,0.8,1.9,0.8,3c0,1.1-0.3,2.1-0.8,3C10.8,10.2,10.1,10.9,9.2,11.5z M6.8,7.6V7.3
		c0-0.2,0-0.4,0.1-0.5C7,6.7,7.2,6.5,7.5,6.3C8,5.9,8.3,5.6,8.5,5.4c0.2-0.3,0.2-0.6,0.2-0.9c0-0.5-0.2-1-0.6-1.3
		c-0.4-0.3-1-0.5-1.6-0.5c-0.8,0-1.6,0.2-2.4,0.6l0.5,1.1C5.3,4,5.9,3.8,6.4,3.8C6.7,3.8,6.9,3.9,7,4c0.2,0.1,0.2,0.3,0.2,0.5
		c0,0.2-0.1,0.4-0.2,0.5C7,5.2,6.8,5.4,6.4,5.6C6,5.9,5.8,6.2,5.7,6.4C5.5,6.6,5.5,6.9,5.5,7.2v0.4H6.8z M6.2,10.1
		c0.3,0,0.5-0.1,0.6-0.2C7,9.8,7.1,9.6,7.1,9.3C7.1,9,7,8.8,6.8,8.7C6.7,8.5,6.5,8.4,6.2,8.4c-0.3,0-0.5,0.1-0.7,0.2S5.3,9,5.3,9.3
		c0,0.3,0.1,0.5,0.2,0.6C5.7,10.1,5.9,10.1,6.2,10.1z"/>
</g>
</svg>
