<svg id="Layer_1" data-name="Layer 1" xmlns="http://www.w3.org/2000/svg" viewBox="0 0 64 64"><defs><style>.cls-1{fill:#ffc82b;}.cls-2{fill:none;stroke:#4e5253;stroke-linejoin:round;stroke-width:2px;}.cls-3{fill:#fff;}.cls-4{fill:#07b9ec;}</style></defs><title>magic-wand</title><circle class="cls-1" cx="35" cy="29" r="29"/><line class="cls-2" x1="32" y1="32" x2="22" y2="42"/><polygon class="cls-3" points="29 15 36 23 45.92 18.08 41 28 49 35 38 33 33 44 32 32 20 31 30 26 29 15"/><polygon class="cls-2" points="29 15 36 23 45.92 18.08 41 28 49 35 38 33 33 44 32 32 20 31 30 26 29 15"/><polygon class="cls-4" points="1 61 1 59 20 40 24 44 5 63 3 63 1 61"/><polygon class="cls-2" points="1 61 1 59 20 40 24 44 5 63 3 63 1 61"/><line class="cls-2" x1="46" y1="27" x2="48" y2="27"/><line class="cls-2" x1="24" y1="23" x2="26" y2="23"/><line class="cls-2" x1="36" y1="17" x2="38" y2="17"/><line class="cls-2" x1="40" y1="38" x2="42" y2="38"/></svg>