<svg xmlns="http://www.w3.org/2000/svg" width="11" height="18" viewBox="0 0 11 18">
  <defs>
    <style>
      .cls-1 {
        fill: #fff;
        fill-rule: evenodd;
      }
    </style>
  </defs>
  <path id="Mobile" class="cls-1" d="M755.177,81h-7.351a1.816,1.816,0,0,0-1.833,1.8V97.2a1.816,1.816,0,0,0,1.833,1.8h7.35a1.816,1.816,0,0,0,1.834-1.8V82.793A1.816,1.816,0,0,0,755.177,81ZM751.5,98.1a0.927,0.927,0,1,1,1.148-.9A1.046,1.046,0,0,1,751.5,98.1Zm3.673-2.7h-7.345V82.8h7.345V95.4Z" transform="translate(-746 -81)"/>
</svg>
