<?xml version="1.0" encoding="utf-8"?>
<!-- Generator: Adobe Illustrator 20.0.0, SVG Export Plug-In . SVG Version: 6.00 Build 0)  -->
<svg version="1.1" id="Layer_1" xmlns="http://www.w3.org/2000/svg" xmlns:xlink="http://www.w3.org/1999/xlink" x="0px" y="0px"
	 viewBox="0 0 75 64.2" style="enable-background:new 0 0 75 64.2;" xml:space="preserve">
<polygon class="st0" points="34.8,51.6 41.1,51.5 41.1,42.5 50.1,42.5 50.1,36.2 41,36.2 41,27.2 34.7,27.2 34.8,36.2 25.7,36.3 
	25.7,42.6 34.8,42.5 "/>
<path class="st0" d="M4.2,60V18h66.7v42H4.2z M70.8,4.2v9.7H4.2V4.2H70.8z M75,2.1C75,0.9,74.1,0,72.9,0H2.1C0.9,0,0,0.9,0,2.1V62
	c0,1.2,0.9,2.2,2.1,2.2h70.8c1.2,0,2.1-0.9,2.1-2.1L75,2.1L75,2.1z"/>
</svg>
