<svg id="Layer_1" data-name="Layer 1" xmlns="http://www.w3.org/2000/svg" viewBox="0 0 90 68"><title>np_image_1570203_000000</title><path d="M84,.5H6A5.51,5.51,0,0,0,.5,6V62A5.51,5.51,0,0,0,6,67.5H84A5.51,5.51,0,0,0,89.5,62V6A5.51,5.51,0,0,0,84,.5ZM86.5,62A2.45,2.45,0,0,1,84,64.5H6A2.45,2.45,0,0,1,3.5,62V6A2.45,2.45,0,0,1,6,3.5H84A2.45,2.45,0,0,1,86.5,6Z" fill="#0074ee"/><path d="M53.38,14.9A1.4,1.4,0,0,0,52,13.49a1.43,1.43,0,0,0-1.4,1.41V35.6a1.41,1.41,0,1,0,2.81,0Z" fill="#0074ee"/><path d="M45,10.77a1.43,1.43,0,0,0-1.41,1.41V38.33a1.41,1.41,0,0,0,2.82,0V12.18A1.43,1.43,0,0,0,45,10.77Z" fill="#0074ee"/><path d="M38,17.31a1.42,1.42,0,0,0-1.41,1.4V31.79a1.41,1.41,0,0,0,2.81,0V18.71A1.42,1.42,0,0,0,38,17.31Z" fill="#0074ee"/><path d="M31,20a1.43,1.43,0,0,0-1.41,1.41v7.62a1.41,1.41,0,1,0,2.81,0V21.44A1.39,1.39,0,0,0,31,20Z" fill="#0074ee"/><path d="M59,20a1.43,1.43,0,0,0-1.41,1.41v7.62a1.41,1.41,0,0,0,2.82,0V21.44A1.43,1.43,0,0,0,59,20Z" fill="#0074ee"/></svg>