<svg id="Layer_1" data-name="Layer 1" xmlns="http://www.w3.org/2000/svg" viewBox="0 0 90 68"><title>np_image_1570203_000000</title><path d="M84,.5H6A5.51,5.51,0,0,0,.5,6V62A5.51,5.51,0,0,0,6,67.5H84A5.51,5.51,0,0,0,89.5,62V6A5.51,5.51,0,0,0,84,.5ZM86.5,62A2.45,2.45,0,0,1,84,64.5H6A2.45,2.45,0,0,1,3.5,62V6A2.45,2.45,0,0,1,6,3.5H84A2.45,2.45,0,0,1,86.5,6Z" fill="#0074ee"/><path d="M28,25.57a1.6,1.6,0,0,0-1.11-.46,1.56,1.56,0,0,0-1.1.46,1.53,1.53,0,0,0,0,2.19l9.05,9a1.6,1.6,0,0,0,2.21,0l17-16.92,8,7.91a1.56,1.56,0,0,0,2.21,0,1.53,1.53,0,0,0,0-2.19l-9-9a1.56,1.56,0,0,0-2.21,0L36,33.48Z" fill="#0074ee"/><path d="M39.56,11.49a3.54,3.54,0,0,0-2.48-1,3.47,3.47,0,0,0-2.47,1,3.56,3.56,0,0,0-1,2.5,3.5,3.5,0,0,0,6,2.49h0a3.57,3.57,0,0,0,0-5Z" fill="#0074ee"/></svg>