<svg id="Layer_1" data-name="Layer 1" xmlns="http://www.w3.org/2000/svg" viewBox="0 0 90 68"><title>np_image_1570203_000000</title><path d="M84,.5H6A5.51,5.51,0,0,0,.5,6V62A5.51,5.51,0,0,0,6,67.5H84A5.51,5.51,0,0,0,89.5,62V6A5.51,5.51,0,0,0,84,.5ZM86.5,62A2.45,2.45,0,0,1,84,64.5H6A2.45,2.45,0,0,1,3.5,62V6A2.45,2.45,0,0,1,6,3.5H84A2.45,2.45,0,0,1,86.5,6Z" fill="#0074ee"/><path d="M37.42,12v24a1.52,1.52,0,0,0,.82,1.26,1.38,1.38,0,0,0,1.36.06l20-12a1.72,1.72,0,0,0,0-2.68l-20-12a1.49,1.49,0,0,0-.83-.21A1.58,1.58,0,0,0,37.42,12Zm2.93,2.65,15.57,9.36L40.35,33.37Z" fill="#0074ee"/></svg>