<svg id="Layer_1" data-name="Layer 1" xmlns="http://www.w3.org/2000/svg" viewBox="0 0 58 68"><title>np_image_1570203_000000</title><path d="M52,.5H6A5.51,5.51,0,0,0,.5,6V62A5.51,5.51,0,0,0,6,67.5H52A5.51,5.51,0,0,0,57.5,62V6A5.51,5.51,0,0,0,52,.5ZM54.5,62A2.45,2.45,0,0,1,52,64.5H6A2.45,2.45,0,0,1,3.5,62V6A2.45,2.45,0,0,1,6,3.5H52A2.45,2.45,0,0,1,54.5,6Z" fill="#0074ee"/><path d="M29.75,34.74l.09-.1,5.29-5.3a1.43,1.43,0,0,0,0-2,1.43,1.43,0,0,0-2,0l-3,3V11.58a1.41,1.41,0,0,0-2.82,0V30.34l-3-3a1.41,1.41,0,0,0-2,2l5.37,5.39a1.39,1.39,0,0,0,1,.41h0A1.39,1.39,0,0,0,29.75,34.74Z" fill="#0074ee"/></svg>